<?xml version="1.0" encoding="UTF-8" standalone="no"?>
<!-- Created with Inkscape (http://www.inkscape.org/) -->

<svg
   width="24mm"
   height="24mm"
   viewBox="0 0 24 24"
   version="1.1"
   id="svg1"
   inkscape:version="1.3.2 (091e20ef0f, 2023-11-25, custom)"
   sodipodi:docname="icon.svg"
   inkscape:export-filename="icon.png"
   inkscape:export-xdpi="25.4"
   inkscape:export-ydpi="25.4"
   xmlns:inkscape="http://www.inkscape.org/namespaces/inkscape"
   xmlns:sodipodi="http://sodipodi.sourceforge.net/DTD/sodipodi-0.dtd"
   xmlns="http://www.w3.org/2000/svg"
   xmlns:svg="http://www.w3.org/2000/svg">
  <sodipodi:namedview
     id="namedview1"
     pagecolor="#ffffff"
     bordercolor="#999999"
     borderopacity="1"
     inkscape:showpageshadow="2"
     inkscape:pageopacity="0"
     inkscape:pagecheckerboard="0"
     inkscape:deskcolor="#d1d1d1"
     inkscape:document-units="mm"
     inkscape:zoom="6.0791807"
     inkscape:cx="34.790872"
     inkscape:cy="49.431003"
     inkscape:window-width="1860"
     inkscape:window-height="1048"
     inkscape:window-x="0"
     inkscape:window-y="0"
     inkscape:window-maximized="1"
     inkscape:current-layer="layer1" />
  <defs
     id="defs1" />
  <g
     inkscape:label="Warstwa 1"
     inkscape:groupmode="layer"
     id="layer1"
     transform="translate(-52.297909,-22.362928)">
    <rect
       style="fill:#2b8ced;fill-opacity:1;stroke-width:0;stroke-linecap:round;stroke-miterlimit:3;paint-order:stroke fill markers"
       id="rect5"
       width="24"
       height="24"
       x="52.297909"
       y="22.362928"
       ry="5.0051389" />
    <g
       id="use481"
       transform="matrix(0.48088649,0,0,0.48088649,47.784379,18.15398)"
       style="fill:#ffffff">
      <!-- Generator: Sketch 63.1 (92452) - https://sketch.com -->
      <title
         id="title1">logo</title>
      <desc
         id="desc1">Created with Sketch.</desc>
      <g
         id="g4"
         stroke="none"
         stroke-width="1"
         fill="none"
         fill-rule="evenodd"
         style="fill:#ffffff">
        <g
           id="g3"
           fill="#2b8ced"
           style="fill:#ffffff">
          <g
             id="g2"
             style="fill:#ffffff">
            <path
               d="m 44.344051,38.217809 9.430333,0.01088 c -0.237453,0.668274 -1.286322,2.101087 -1.687565,2.598316 -0.255591,0.317534 -1.217403,1.478573 -1.502849,1.738069 -0.227687,0.206482 -0.331765,0.317256 -0.524016,0.507275 -0.948697,0.937815 -1.225215,1.167735 -2.265713,2.006495 -3.997644,3.226688 -9.406894,5.316892 -15.001978,6.2109 -2.786939,0.445608 -4.995172,0.527085 -7.816989,0.08092 -2.387927,-0.378084 -4.574117,-1.040498 -6.46928,-2.024074 -1.986126,-1.031011 -3.443772,-2.312311 -4.597556,-3.899426 -1.052217,-1.44788 -2.134848,-4.018851 -2.185631,-6.346229 0.0095,0.01088 0.02037,0.02539 0.02623,0.03348 l 0.01175,0.0158 v 0 l 0.0128,0.01768 0.0226,0.03404 0.449236,0.984413 c 0.283717,0.541092 0.590113,1.050576 0.939903,1.529452 l 0.270803,0.353433 0.709849,0.812253 c 3.463304,3.807067 8.904642,4.508267 14.154567,3.936537 3.661415,-0.398732 6.359622,-1.255071 9.529388,-2.794752 2.127315,-1.033801 4.420094,-2.984491 5.833653,-4.920113 0.126958,-0.172719 0.509786,-0.792999 0.660461,-0.885358 z M 40.443537,25.33578 c -0.0904,0.485509 -0.427472,2.110573 -0.755052,3.688201 -0.393973,1.896341 -0.837225,4.031862 -1.059674,5.173911 l -0.03691,0.190974 -0.02986,0.158767 1.150436,0.0059 c 1.271534,0.0071 2.666333,0.01395 3.827179,0.01555 l 0.48214,3.51e-4 -0.57731,2.859208 -0.235568,7.41e-4 c -1.205532,0.0033 -4.717946,0.0073 -6.843091,0.0092 l -1.286622,9.77e-4 c 0.210025,-1.047132 1.422436,-7.026619 2.073356,-10.235452 l 0.04894,-0.241239 0.329812,-1.627854 0.255022,4.86e-4 c 0.681476,0.0013 2.116481,0.004 2.657201,3.52e-4 z M 21.861063,25.28193 20.16708,33.481189 c -0.511181,2.473868 -2.371186,3.950209 -4.973966,3.950209 -1.299715,0 -2.305056,-0.391478 -2.908595,-1.132857 -0.545073,-0.670599 -0.728465,-1.567734 -0.54564,-2.66804 l 0.04478,-0.238881 0.141188,-0.682225 h 2.874833 l -0.145374,0.698967 c -0.09766,0.499461 -0.04883,0.885916 0.141189,1.116673 0.158767,0.193088 0.424402,0.291306 0.789093,0.291306 0.855863,0 1.476423,-0.521029 1.723498,-1.4377 l 0.04192,-0.176481 1.639015,-7.92023 z m 35.114283,3.220438 c 0.02598,0.139068 0.03217,0.474335 0.03354,0.662979 l 2.95e-4,0.134764 -2.795109,-0.01674 -0.06111,-0.15793 c -0.386734,-0.985808 -1.066726,-1.409653 -2.205443,-1.365846 -0.869174,0.03069 -1.640967,0.375015 -2.232229,0.994738 -0.618607,0.649858 -1.041614,1.59716 -1.222983,2.738666 -0.176067,1.107465 -0.04883,2.023237 0.367481,2.650215 0.400685,0.603539 1.055007,0.911308 1.900464,0.885358 1.078272,-0.03218 2.058938,-0.626196 2.670242,-1.509615 l 0.117255,-0.180462 0.04381,-0.07115 2.751222,0.0073 c -0.15793,0.456491 -0.359668,0.900425 -0.630325,1.300273 -1.186151,1.748673 -3.039739,2.743969 -5.304615,2.826282 -0.09766,0.0028 -0.194483,0.005 -0.289074,0.005 -3.910308,0 -4.841427,-2.97333 -4.39219,-5.812726 0.262008,-1.658268 0.942001,-3.107264 1.96492,-4.190453 1.180012,-1.250049 2.783311,-1.946784 4.634666,-2.013751 2.51098,-0.08538 4.269976,1.070075 4.649177,3.113124 z m -21.476449,0.351576 c 0.238849,2.718298 -1.754532,5.137755 -4.254629,5.441339 -2.015983,0.245266 -2.081554,-0.886754 -2.203211,-1.034639 -0.484115,0.332602 -0.661019,0.536014 -1.340175,0.768166 -0.570892,0.195041 -1.25228,0.234942 -1.812849,-0.0031 -2.272968,-0.966835 0.04883,-5.362653 3.102241,-5.511933 1.019472,-0.04937 1.2794,0.261132 1.401829,0.508594 l 0.0215,0.04556 0.237175,-0.440586 1.449554,-0.0014 c 0,0 -1.604415,3.340252 -1.611949,3.936536 -0.01144,0.946466 1.450949,0.489975 1.889303,0.214015 1.841311,-1.156853 2.346632,-4.293135 0.569498,-5.591456 -2.843024,-2.076252 -9.543061,0.206203 -9.97416,5.342563 -0.238848,2.847209 2.411924,3.843341 4.77446,3.635744 1.062455,-0.0935 1.364341,-0.291128 2.061353,-0.503573 l 0.183154,-0.05337 0.254195,1.043289 c -0.510343,0.333439 -1.920834,0.627535 -2.644355,0.685852 -6.012231,0.486347 -7.902929,-4.042288 -4.620715,-8.513723 3.281935,-4.471714 12.073014,-5.030888 12.517785,0.03209 z m -6.838435,0.943396 c -1.224657,0.306653 -2.164426,1.911905 -1.908277,2.735318 0.244708,0.782676 1.431417,0.454259 2.068998,-0.184159 0.19532,-0.195878 0.940047,-2.073462 0.927491,-2.149358 -0.05804,-0.360226 -0.626699,-0.517598 -1.088212,-0.401801 z m 19.96534,-10.719669 c 1.449554,0.760074 3.036112,1.882886 4.167294,3.052853 0.507055,0.523119 1.501788,1.651084 1.822711,2.286748 l 0.06157,0.137453 -9.564267,-0.0059 c -0.09822,-0.268425 -0.616653,-0.942 -0.799417,-1.158247 -0.920237,-1.090444 -1.997009,-1.956829 -3.325743,-2.56539 -4.99573,-2.290547 -11.528629,-1.104396 -16.599417,0.550244 -0.892334,0.291864 -2.239206,0.837924 -2.872042,1.031569 0.586239,-0.291026 1.238329,-0.674133 1.882885,-0.986366 1.993381,-0.966834 3.957464,-1.829591 6.088406,-2.55395 2.963843,-1.007572 6.227642,-1.776575 9.651045,-1.849123 3.49316,-0.0745 6.836203,0.669669 9.486975,2.060069 z"
               id="path1"
               sodipodi:nodetypes="ccccccccccccccccccccsccscccccccccccccsccsccccscccccccsccccscccccccccccccccscccssscccccccccccccccccccsscccccccccccccccccc"
               style="fill:#ffffff" />
          </g>
        </g>
      </g>
    </g>
  </g>
</svg>
